<?xml version="1.0" encoding="UTF-8" standalone="no"?>
<svg
   xmlns:dc="http://purl.org/dc/elements/1.1/"
   xmlns:cc="http://creativecommons.org/ns#"
   xmlns:rdf="http://www.w3.org/1999/02/22-rdf-syntax-ns#"
   xmlns:svg="http://www.w3.org/2000/svg"
   xmlns="http://www.w3.org/2000/svg"
   id="svg1345"
   version="1.1"
   viewBox="0 0 66.057259 48.310276"
   height="48.310276mm"
   width="66.057259mm">
  <defs
     id="defs1339" />
  <metadata
     id="metadata1342">
    <rdf:RDF>
      <cc:Work
         rdf:about="">
        <dc:format>image/svg+xml</dc:format>
        <dc:type
           rdf:resource="http://purl.org/dc/dcmitype/StillImage" />
        <dc:title></dc:title>
      </cc:Work>
    </rdf:RDF>
  </metadata>
  <g
     transform="translate(-72.048747,-117.87463)"
     id="layer1">
    <path
       id="path298"
       style="fill:#050606;fill-opacity:1;fill-rule:nonzero;stroke:none;stroke-width:0.35277775"
       d="m 90.700144,152.40875 h -1.48943 v -8.5471 h 1.48943 z" />
    <g
       transform="matrix(0.35277777,0,0,-0.35277777,94.339014,146.53571)"
       id="g300">
      <path
         id="path302"
         style="fill:#050606;fill-opacity:1;fill-rule:nonzero;stroke:none"
         d="M 0,0 C 0.162,-0.346 0.456,-0.669 0.885,-0.969 1.312,-1.27 1.902,-1.546 2.654,-1.8 c 0.752,-0.254 1.707,-0.519 2.863,-0.796 1.273,-0.323 2.4,-0.68 3.383,-1.072 0.984,-0.394 1.799,-0.872 2.447,-1.437 0.648,-0.565 1.139,-1.223 1.474,-1.973 0.336,-0.75 0.504,-1.632 0.504,-2.648 0,-1.154 -0.212,-2.18 -0.635,-3.08 -0.424,-0.9 -1.014,-1.662 -1.769,-2.284 -0.754,-0.623 -1.662,-1.097 -2.721,-1.42 -1.06,-0.323 -2.224,-0.485 -3.493,-0.485 -1.87,0 -3.658,0.318 -5.365,0.953 -1.708,0.634 -3.288,1.608 -4.742,2.924 l 2.561,3.046 c 1.177,-1.016 2.365,-1.795 3.566,-2.336 1.199,-0.542 2.561,-0.814 4.084,-0.814 1.314,0 2.359,0.277 3.132,0.831 0.772,0.554 1.159,1.303 1.159,2.249 0,0.438 -0.075,0.831 -0.226,1.177 -0.149,0.347 -0.428,0.664 -0.833,0.952 -0.404,0.289 -0.96,0.559 -1.665,0.814 -0.705,0.253 -1.625,0.519 -2.759,0.796 -1.295,0.299 -2.446,0.634 -3.452,1.004 -1.007,0.369 -1.851,0.831 -2.533,1.384 -0.683,0.554 -1.204,1.223 -1.562,2.008 -0.359,0.784 -0.537,1.742 -0.537,2.873 0,1.06 0.205,2.024 0.617,2.889 0.412,0.866 0.978,1.61 1.7,2.233 0.72,0.623 1.587,1.102 2.601,1.436 1.012,0.335 2.119,0.502 3.319,0.502 1.777,0 3.374,-0.259 4.794,-0.779 C 9.985,6.628 11.317,5.872 12.563,4.88 L 10.279,1.661 C 9.172,2.469 8.075,3.086 6.991,3.513 5.906,3.94 4.811,4.153 3.703,4.153 2.457,4.153 1.488,3.87 0.795,3.306 0.104,2.74 -0.243,2.054 -0.243,1.246 -0.243,0.761 -0.162,0.346 0,0" />
    </g>
    <g
       transform="matrix(0.35277777,0,0,-0.35277777,104.32685,145.59538)"
       id="g304">
      <path
         id="path306"
         style="fill:#050606;fill-opacity:1;fill-rule:nonzero;stroke:none"
         d="m 0,0 -4.154,-9.692 h 8.341 z m 12.703,-19.313 h -4.5 l -2.458,5.848 H -5.711 l -2.492,-5.848 h -4.361 l 10.66,24.4 h 3.946 z" />
    </g>
    <g
       transform="matrix(0.35277777,0,0,-0.35277777,117.83129,152.40872)"
       id="g308">
      <path
         id="path310"
         style="fill:#050606;fill-opacity:1;fill-rule:nonzero;stroke:none"
         d="m 0,0 h -5.157 l -8.272,10.903 -3.773,-3.877 V 0 h -4.222 v 24.228 h 4.222 V 12.045 L -5.676,24.228 H -0.45 L -10.522,13.81 Z" />
    </g>
    <path
       id="path312"
       style="fill:#050606;fill-opacity:1;fill-rule:nonzero;stroke:none;stroke-width:0.35277775"
       d="m 119.38203,143.86165 h 0.635 v 8.5471 h -0.635 z" />
    <g
       transform="matrix(0.35277777,0,0,-0.35277777,125.64546,144.43558)"
       id="g314">
      <path
         id="path316"
         style="fill:#050606;fill-opacity:1;fill-rule:nonzero;stroke:none"
         d="M 0,0 V -22.601 H -1.8 V 0 h -8.445 V 1.627 H 8.445 V 0 Z" />
    </g>
    <g
       transform="matrix(0.35277777,0,0,-0.35277777,137.44058,148.13527)"
       id="g318">
      <path
         id="path320"
         style="fill:#050606;fill-opacity:1;fill-rule:nonzero;stroke:none"
         d="m 0,0 c 0,1.5 -0.26,2.913 -0.779,4.24 -0.519,1.327 -1.234,2.48 -2.145,3.461 -0.912,0.981 -2.003,1.76 -3.271,2.337 -1.27,0.576 -2.654,0.865 -4.154,0.865 -1.5,0 -2.879,-0.283 -4.136,-0.848 -1.258,-0.566 -2.342,-1.339 -3.254,-2.32 C -18.65,6.754 -19.36,5.607 -19.867,4.292 -20.375,2.977 -20.629,1.569 -20.629,0.069 V 0 c 0,-1.5 0.26,-2.913 0.779,-4.24 0.52,-1.327 1.235,-2.481 2.146,-3.461 0.912,-0.981 2.002,-1.759 3.271,-2.336 1.268,-0.578 2.653,-0.866 4.154,-0.866 1.499,0 2.878,0.283 4.135,0.848 1.258,0.566 2.342,1.338 3.254,2.319 0.911,0.981 1.62,2.129 2.129,3.444 C -0.254,-2.977 0,-1.569 0,-0.069 Z m 0.987,-4.759 c -0.589,-1.512 -1.414,-2.844 -2.475,-3.998 -1.062,-1.154 -2.348,-2.071 -3.859,-2.751 -1.512,-0.68 -3.179,-1.021 -5.002,-1.021 -1.846,0 -3.512,0.341 -5.001,1.021 -1.489,0.68 -2.763,1.592 -3.824,2.734 -1.062,1.142 -1.881,2.462 -2.458,3.963 -0.577,1.499 -0.866,3.08 -0.866,4.742 V 0 c 0,1.661 0.295,3.248 0.883,4.759 0.589,1.511 1.413,2.844 2.475,3.997 1.061,1.155 2.341,2.072 3.842,2.752 1.499,0.681 3.172,1.022 5.019,1.022 1.822,0 3.483,-0.341 4.984,-1.022 1.499,-0.68 2.78,-1.591 3.842,-2.734 1.06,-1.142 1.88,-2.463 2.456,-3.963 0.578,-1.5 0.866,-3.08 0.866,-4.742 0.023,-0.023 0.023,-0.047 0,-0.069 0,-1.661 -0.294,-3.248 -0.882,-4.759" />
    </g>
    <g
       transform="matrix(0.35277777,0,0,-0.35277777,118.55459,130.41697)"
       id="g322">
      <path
         id="path324"
         style="fill:#c11441;fill-opacity:1;fill-rule:nonzero;stroke:none"
         d="m 0,0 c 0,-7.663 -6.208,-13.875 -13.876,-13.875 -7.665,0 -13.882,6.212 -13.882,13.875 0,7.661 6.217,13.869 13.882,13.869 C -6.208,13.869 0,7.661 0,0" />
    </g>
    <g
       transform="matrix(0.35277777,0,0,-0.35277777,118.47811,130.44488)"
       id="g326">
      <path
         id="path328"
         style="fill:#c11441;fill-opacity:1;fill-rule:nonzero;stroke:none"
         d="m 0,0 c 0,-7.667 -6.211,-13.874 -13.874,-13.874 -7.662,0 -13.876,6.207 -13.876,13.874 0,7.672 6.214,13.874 13.876,13.874 C -6.211,13.874 0,7.672 0,0" />
    </g>
    <g
       transform="matrix(0.35277777,0,0,-0.35277777,109.87587,124.07438)"
       id="g330">
      <path
         id="path332"
         style="fill:#db2c3d;fill-opacity:1;fill-rule:nonzero;stroke:none"
         d="m 0,0 c 0,-6.669 -5.403,-12.077 -12.079,-12.077 -6.671,0 -12.083,5.408 -12.083,12.077 0,6.669 5.412,12.072 12.083,12.072 C -5.403,12.072 0,6.669 0,0" />
    </g>
    <g
       transform="matrix(0.35277777,0,0,-0.35277777,109.80919,124.09865)"
       id="g334">
      <path
         id="path336"
         style="fill:#db2c3d;fill-opacity:1;fill-rule:nonzero;stroke:none"
         d="m 0,0 c 0,-6.673 -5.407,-12.076 -12.076,-12.076 -6.669,0 -12.079,5.403 -12.079,12.076 0,6.678 5.41,12.077 12.079,12.077 C -5.407,12.077 0,6.678 0,0" />
    </g>
    <g
       transform="matrix(0.35277777,0,0,-0.35277777,100.5128,121.74601)"
       id="g338">
      <path
         id="path340"
         style="fill:#df393d;fill-opacity:1;fill-rule:nonzero;stroke:none"
         d="m 0,0 c 0,-6.063 -4.912,-10.978 -10.98,-10.978 -6.065,0 -10.984,4.915 -10.984,10.978 0,6.062 4.919,10.974 10.984,10.974 C -4.912,10.974 0,6.062 0,0" />
    </g>
    <g
       transform="matrix(0.35277777,0,0,-0.35277777,100.45215,121.76806)"
       id="g342">
      <path
         id="path344"
         style="fill:#df393d;fill-opacity:1;fill-rule:nonzero;stroke:none"
         d="m 0,0 c 0,-6.066 -4.915,-10.978 -10.978,-10.978 -6.062,0 -10.98,4.912 -10.98,10.978 0,6.07 4.918,10.978 10.98,10.978 C -4.915,10.978 0,6.07 0,0" />
    </g>
    <g
       transform="matrix(0.35277777,0,0,-0.35277777,91.264584,123.44838)"
       id="g346">
      <path
         id="path348"
         style="fill:#dd5938;fill-opacity:1;fill-rule:nonzero;stroke:none"
         d="m 0,0 c 0,-5.512 -4.465,-9.98 -9.982,-9.98 -5.513,0 -9.985,4.468 -9.985,9.98 0,5.511 4.472,9.976 9.985,9.976 C -4.465,9.976 0,5.511 0,0" />
    </g>
    <g
       transform="matrix(0.35277777,0,0,-0.35277777,91.209664,123.46838)"
       id="g350">
      <path
         id="path352"
         style="fill:#dd5938;fill-opacity:1;fill-rule:nonzero;stroke:none"
         d="m 0,0 c 0,-5.515 -4.468,-9.98 -9.98,-9.98 -5.511,0 -9.982,4.465 -9.982,9.98 0,5.519 4.471,9.98 9.982,9.98 C -4.468,9.98 0,5.519 0,0" />
    </g>
    <g
       transform="matrix(0.35277777,0,0,-0.35277777,83.949105,127.82624)"
       id="g354">
      <path
         id="path356"
         style="fill:#d68d32;fill-opacity:1;fill-rule:nonzero;stroke:none"
         d="m 0,0 c 0,-4.847 -3.926,-8.775 -8.777,-8.775 -4.848,0 -8.78,3.928 -8.78,8.775 0,4.846 3.932,8.772 8.78,8.772 C -3.926,8.772 0,4.846 0,0" />
    </g>
    <g
       transform="matrix(0.35277777,0,0,-0.35277777,83.900704,127.84381)"
       id="g358">
      <path
         id="path360"
         style="fill:#d68d32;fill-opacity:1;fill-rule:nonzero;stroke:none"
         d="m 0,0 c 0,-4.849 -3.929,-8.775 -8.775,-8.775 -4.846,0 -8.777,3.926 -8.777,8.775 0,4.852 3.931,8.775 8.777,8.775 C -3.929,8.775 0,4.852 0,0" />
    </g>
    <g
       transform="matrix(0.35277777,0,0,-0.35277777,79.609658,134.06103)"
       id="g362">
      <path
         id="path364"
         style="fill:#c5a330;fill-opacity:1;fill-rule:nonzero;stroke:none"
         d="m 0,0 c 0,-4.24 -3.435,-7.677 -7.678,-7.677 -4.241,0 -7.681,3.437 -7.681,7.677 0,4.239 3.44,7.674 7.681,7.674 C -3.435,7.674 0,4.239 0,0" />
    </g>
    <g
       transform="matrix(0.35277777,0,0,-0.35277777,79.567287,134.07651)"
       id="g366">
      <path
         id="path368"
         style="fill:#c5a330;fill-opacity:1;fill-rule:nonzero;stroke:none"
         d="m 0,0 c 0,-4.242 -3.437,-7.677 -7.677,-7.677 -4.239,0 -7.678,3.435 -7.678,7.677 0,4.245 3.439,7.677 7.678,7.677 C -3.437,7.677 0,4.245 0,0" />
    </g>
    <g
       transform="matrix(0.35277777,0,0,-0.35277777,76.868749,140.36622)"
       id="g370">
      <path
         id="path372"
         style="fill:#a5a933;fill-opacity:1;fill-rule:nonzero;stroke:none"
         d="m 0,0 c 0,-3.744 -3.033,-6.778 -6.779,-6.778 -3.745,0 -6.782,3.034 -6.782,6.778 0,3.743 3.037,6.775 6.782,6.775 C -3.033,6.775 0,3.743 0,0" />
    </g>
    <g
       transform="matrix(0.35277777,0,0,-0.35277777,76.831355,140.37984)"
       id="g374">
      <path
         id="path376"
         style="fill:#a5a933;fill-opacity:1;fill-rule:nonzero;stroke:none"
         d="m 0,0 c 0,-3.746 -3.035,-6.778 -6.778,-6.778 -3.743,0 -6.779,3.032 -6.779,6.778 0,3.748 3.036,6.778 6.779,6.778 C -3.035,6.778 0,3.748 0,0" />
    </g>
    <g
       transform="matrix(0.35277777,0,0,-0.35277777,77.096468,146.51366)"
       id="g378">
      <path
         id="path380"
         style="fill:#789d36;fill-opacity:1;fill-rule:nonzero;stroke:none"
         d="m 0,0 c 0,-3.357 -2.72,-6.079 -6.08,-6.079 -3.358,0 -6.082,2.722 -6.082,6.079 0,3.357 2.724,6.077 6.082,6.077 C -2.72,6.077 0,3.357 0,0" />
    </g>
    <g
       transform="matrix(0.35277777,0,0,-0.35277777,77.062884,146.52586)"
       id="g382">
      <path
         id="path384"
         style="fill:#789d36;fill-opacity:1;fill-rule:nonzero;stroke:none"
         d="m 0,0 c 0,-3.359 -2.722,-6.079 -6.079,-6.079 -3.357,0 -6.079,2.72 -6.079,6.079 0,3.362 2.722,6.079 6.079,6.079 C -2.722,6.079 0,3.362 0,0" />
    </g>
    <g
       transform="matrix(0.35277777,0,0,-0.35277777,78.237491,151.29923)"
       id="g386">
      <path
         id="path388"
         style="fill:#7aa975;fill-opacity:1;fill-rule:nonzero;stroke:none"
         d="m 0,0 c 0,-2.806 -2.273,-5.081 -5.082,-5.081 -2.806,0 -5.082,2.275 -5.082,5.081 0,2.805 2.276,5.079 5.082,5.079 C -2.273,5.079 0,2.805 0,0" />
    </g>
    <g
       transform="matrix(0.35277777,0,0,-0.35277777,78.209411,151.30939)"
       id="g390">
      <path
         id="path392"
         style="fill:#7aa975;fill-opacity:1;fill-rule:nonzero;stroke:none"
         d="m 0,0 c 0,-2.807 -2.274,-5.081 -5.08,-5.081 -2.806,0 -5.081,2.274 -5.081,5.081 0,2.809 2.275,5.08 5.081,5.08 C -2.274,5.08 0,2.809 0,0" />
    </g>
    <g
       transform="matrix(0.35277777,0,0,-0.35277777,79.950229,155.82075)"
       id="g394">
      <path
         id="path396"
         style="fill:#66abaf;fill-opacity:1;fill-rule:nonzero;stroke:none"
         d="m 0,0 c 0,-2.199 -1.782,-3.983 -3.983,-3.983 -2.201,0 -3.985,1.784 -3.985,3.983 0,2.199 1.784,3.981 3.985,3.981 C -1.782,3.981 0,2.199 0,0" />
    </g>
    <g
       transform="matrix(0.35277777,0,0,-0.35277777,79.928179,155.82869)"
       id="g398">
      <path
         id="path400"
         style="fill:#66abaf;fill-opacity:1;fill-rule:nonzero;stroke:none"
         d="m 0,0 c 0,-2.201 -1.783,-3.982 -3.982,-3.982 -2.2,0 -3.983,1.781 -3.983,3.982 0,2.202 1.783,3.982 3.983,3.982 C -1.783,3.982 0,2.202 0,0" />
    </g>
    <g
       transform="matrix(0.35277777,0,0,-0.35277777,82.587453,159.31113)"
       id="g402">
      <path
         id="path404"
         style="fill:#5492b4;fill-opacity:1;fill-rule:nonzero;stroke:none"
         d="m 0,0 c 0,-1.814 -1.469,-3.284 -3.285,-3.284 -1.814,0 -3.285,1.47 -3.285,3.284 0,1.813 1.471,3.283 3.285,3.283 C -1.469,3.283 0,1.813 0,0" />
    </g>
    <g
       transform="matrix(0.35277777,0,0,-0.35277777,82.569356,159.31769)"
       id="g406">
      <path
         id="path408"
         style="fill:#5492b4;fill-opacity:1;fill-rule:nonzero;stroke:none"
         d="m 0,0 c 0,-1.815 -1.47,-3.284 -3.284,-3.284 -1.814,0 -3.284,1.469 -3.284,3.284 0,1.816 1.47,3.284 3.284,3.284 C -1.47,3.284 0,1.816 0,0" />
    </g>
    <g
       transform="matrix(0.35277777,0,0,-0.35277777,86.012714,161.70893)"
       id="g410">
      <path
         id="path412"
         style="fill:#5170b7;fill-opacity:1;fill-rule:nonzero;stroke:none"
         d="m 0,0 c 0,-1.813 -1.47,-3.284 -3.285,-3.284 -1.814,0 -3.285,1.471 -3.285,3.284 0,1.813 1.471,3.283 3.285,3.283 C -1.47,3.283 0,1.813 0,0" />
    </g>
    <g
       transform="matrix(0.35277777,0,0,-0.35277777,85.994651,161.71549)"
       id="g414">
      <path
         id="path416"
         style="fill:#5170b7;fill-opacity:1;fill-rule:nonzero;stroke:none"
         d="m 0,0 c 0,-1.814 -1.47,-3.284 -3.284,-3.284 -1.814,0 -3.285,1.47 -3.285,3.284 0,1.816 1.471,3.284 3.285,3.284 C -1.47,3.284 0,1.816 0,0" />
    </g>
    <g
       transform="matrix(0.35277777,0,0,-0.35277777,89.986824,164.01232)"
       id="g418">
      <path
         id="path420"
         style="fill:#6b5fb5;fill-opacity:1;fill-rule:nonzero;stroke:none"
         d="m 0,0 c 0,-1.813 -1.47,-3.284 -3.285,-3.284 -1.814,0 -3.285,1.471 -3.285,3.284 0,1.813 1.471,3.283 3.285,3.283 C -1.47,3.283 0,1.813 0,0" />
    </g>
    <g
       transform="matrix(0.35277777,0,0,-0.35277777,89.968734,164.01888)"
       id="g422">
      <path
         id="path424"
         style="fill:#6b5fb5;fill-opacity:1;fill-rule:nonzero;stroke:none"
         d="m 0,0 c 0,-1.814 -1.47,-3.284 -3.284,-3.284 -1.814,0 -3.285,1.47 -3.285,3.284 0,1.816 1.471,3.284 3.285,3.284 C -1.47,3.284 0,1.816 0,0" />
    </g>
    <g
       transform="matrix(0.35277777,0,0,-0.35277777,94.233244,164.7916)"
       id="g426">
      <path
         id="path428"
         style="fill:#6955b0;fill-opacity:1;fill-rule:nonzero;stroke:none"
         d="m 0,0 c 0,-1.813 -1.469,-3.284 -3.284,-3.284 -1.815,0 -3.286,1.471 -3.286,3.284 0,1.814 1.471,3.283 3.286,3.283 C -1.469,3.283 0,1.814 0,0" />
    </g>
    <g
       transform="matrix(0.35277777,0,0,-0.35277777,94.215154,164.79817)"
       id="g430">
      <path
         id="path432"
         style="fill:#6955b0;fill-opacity:1;fill-rule:nonzero;stroke:none"
         d="m 0,0 c 0,-1.814 -1.47,-3.284 -3.284,-3.284 -1.813,0 -3.284,1.47 -3.284,3.284 0,1.816 1.471,3.284 3.284,3.284 C -1.47,3.284 0,1.816 0,0" />
    </g>
    <g
       transform="matrix(0.35277777,0,0,-0.35277777,99.028624,165.02003)"
       id="g434">
      <path
         id="path436"
         style="fill:#5d43a4;fill-opacity:1;fill-rule:nonzero;stroke:none"
         d="m 0,0 c 0,-1.813 -1.469,-3.284 -3.285,-3.284 -1.814,0 -3.285,1.471 -3.285,3.284 0,1.814 1.471,3.283 3.285,3.283 C -1.469,3.283 0,1.814 0,0" />
    </g>
    <g
       transform="matrix(0.35277777,0,0,-0.35277777,99.010564,165.02638)"
       id="g438">
      <path
         id="path440"
         style="fill:#5d43a4;fill-opacity:1;fill-rule:nonzero;stroke:none"
         d="m 0,0 c 0,-1.815 -1.47,-3.284 -3.284,-3.284 -1.814,0 -3.285,1.469 -3.285,3.284 0,1.816 1.471,3.284 3.285,3.284 C -1.47,3.284 0,1.816 0,0" />
    </g>
    <g
       transform="matrix(0.35277777,0,0,-0.35277777,104.15441,164.36545)"
       id="g442">
      <path
         id="path444"
         style="fill:#5844a4;fill-opacity:1;fill-rule:nonzero;stroke:none"
         d="m 0,0 c 0,-1.632 -1.322,-2.956 -2.956,-2.956 -1.633,0 -2.958,1.324 -2.958,2.956 0,1.632 1.325,2.955 2.958,2.955 C -1.322,2.955 0,1.632 0,0" />
    </g>
    <g
       transform="matrix(0.35277777,0,0,-0.35277777,104.13805,164.3713)"
       id="g446">
      <path
         id="path448"
         style="fill:#5844a4;fill-opacity:1;fill-rule:nonzero;stroke:none"
         d="m 0,0 c 0,-1.633 -1.323,-2.956 -2.956,-2.956 -1.631,0 -2.956,1.323 -2.956,2.956 0,1.634 1.325,2.956 2.956,2.956 C -1.323,2.956 0,1.634 0,0" />
    </g>
  </g>
</svg>
