<?xml version="1.0" encoding="UTF-8" standalone="no"?>
<svg
   xmlns:dc="http://purl.org/dc/elements/1.1/"
   xmlns:cc="http://creativecommons.org/ns#"
   xmlns:rdf="http://www.w3.org/1999/02/22-rdf-syntax-ns#"
   xmlns:svg="http://www.w3.org/2000/svg"
   xmlns="http://www.w3.org/2000/svg"
   id="svg1345"
   version="1.1"
   viewBox="0 0 66.057449 48.310276"
   height="48.310276mm"
   width="66.057449mm">
  <defs
     id="defs1339" />
  <metadata
     id="metadata1342">
    <rdf:RDF>
      <cc:Work
         rdf:about="">
        <dc:format>image/svg+xml</dc:format>
        <dc:type
           rdf:resource="http://purl.org/dc/dcmitype/StillImage" />
        <dc:title></dc:title>
      </cc:Work>
    </rdf:RDF>
  </metadata>
  <g
     transform="translate(-91.703421,-135.26153)"
     id="layer1">
    <g
       transform="matrix(0.35277777,0,0,-0.35277777,131.25997,172.4635)"
       id="g98">
      <path
         id="path100"
         style="fill:#231f20;fill-opacity:1;fill-rule:nonzero;stroke:none"
         d="m 0,0 h -1.255 v -1.371 c 0,-0.777 -0.445,-0.941 -0.819,-0.941 -0.373,0 -0.819,0.164 -0.819,0.941 v 5.285 c 0,0.788 0.446,0.953 0.819,0.953 0.374,0 0.819,-0.165 0.819,-0.953 V 2.894 H 0 V 3.819 C 0,4.535 -0.182,5.096 -0.54,5.484 -0.897,5.872 -1.427,6.068 -2.114,6.068 -2.802,6.068 -3.331,5.872 -3.688,5.484 -4.047,5.096 -4.229,4.535 -4.229,3.819 v -5.083 c 0,-0.715 0.182,-1.276 0.541,-1.666 0.357,-0.386 0.886,-0.583 1.574,-0.583 0.687,0 1.217,0.197 1.574,0.583 0.358,0.39 0.54,0.951 0.54,1.666 z" />
    </g>
    <g
       transform="matrix(0.35277777,0,0,-0.35277777,133.13445,171.42136)"
       id="g102">
      <path
         id="path104"
         style="fill:#231f20;fill-opacity:1;fill-rule:nonzero;stroke:none"
         d="M 0,0 C 0,-0.379 -0.082,-0.655 -0.244,-0.822 -0.406,-0.99 -0.649,-1.075 -0.967,-1.075 h -0.616 v 2.853 h 0.751 c 0.284,0 0.497,-0.087 0.633,-0.258 C -0.065,1.352 0,1.093 0,0.729 Z m 0.04,-5.965 c 0.015,-0.113 0.044,-0.237 0.087,-0.367 h 1.35 c -0.051,0.134 -0.084,0.271 -0.099,0.41 -0.019,0.169 -0.027,0.393 -0.027,0.664 v 1.662 c 0,0.544 -0.074,0.985 -0.217,1.308 -0.141,0.315 -0.375,0.518 -0.717,0.621 L 0.363,-1.65 v 0.132 l 0.047,0.019 c 0.624,0.252 0.927,0.839 0.927,1.796 v 0.581 c 0,0.716 -0.17,1.251 -0.506,1.59 -0.335,0.34 -0.881,0.511 -1.622,0.511 H -2.92 v -9.311 h 1.337 v 4.055 h 0.589 c 0.364,0 0.627,-0.096 0.781,-0.285 0.152,-0.187 0.227,-0.499 0.227,-0.953 v -1.73 c 0,-0.349 0.008,-0.591 0.026,-0.72" />
    </g>
    <g
       transform="matrix(0.35277777,0,0,-0.35277777,135.88051,170.79401)"
       id="g106">
      <path
         id="path108"
         style="fill:#231f20;fill-opacity:1;fill-rule:nonzero;stroke:none"
         d="M 0,0 V 1.201 H -3.905 V -8.11 H 0 v 1.201 h -2.568 v 3.056 h 2.041 v 1.202 H -2.568 V 0 Z" />
    </g>
    <g
       transform="matrix(0.35277777,0,0,-0.35277777,138.16944,172.4635)"
       id="g110">
      <path
         id="path112"
         style="fill:#231f20;fill-opacity:1;fill-rule:nonzero;stroke:none"
         d="m 0,0 h -1.255 v -1.371 c 0,-0.777 -0.445,-0.941 -0.819,-0.941 -0.373,0 -0.819,0.164 -0.819,0.941 v 5.285 c 0,0.788 0.446,0.953 0.819,0.953 0.374,0 0.819,-0.165 0.819,-0.953 V 2.894 H 0 V 3.819 C 0,4.535 -0.182,5.096 -0.54,5.484 -0.897,5.872 -1.427,6.068 -2.114,6.068 -2.802,6.068 -3.331,5.872 -3.688,5.484 -4.047,5.096 -4.229,4.535 -4.229,3.819 v -5.083 c 0,-0.715 0.182,-1.276 0.541,-1.666 0.357,-0.386 0.886,-0.583 1.574,-0.583 0.687,0 1.217,0.197 1.574,0.583 0.358,0.39 0.54,0.951 0.54,1.666 z" />
    </g>
    <g
       transform="matrix(0.35277777,0,0,-0.35277777,140.39152,170.79401)"
       id="g114">
      <path
         id="path116"
         style="fill:#231f20;fill-opacity:1;fill-rule:nonzero;stroke:none"
         d="M 0,0 V 1.201 H -3.905 V -8.11 H 0 v 1.201 h -2.568 v 3.056 h 2.041 v 1.202 H -2.568 V 0 Z" />
    </g>
    <g
       transform="matrix(0.35277777,0,0,-0.35277777,142.25189,171.42136)"
       id="g118">
      <path
         id="path120"
         style="fill:#231f20;fill-opacity:1;fill-rule:nonzero;stroke:none"
         d="M 0,0 C 0,-0.379 -0.082,-0.655 -0.244,-0.822 -0.406,-0.99 -0.649,-1.075 -0.967,-1.075 h -0.616 v 2.853 h 0.751 c 0.284,0 0.497,-0.087 0.633,-0.258 C -0.065,1.352 0,1.093 0,0.729 Z m 0.04,-5.965 c 0.015,-0.113 0.044,-0.237 0.087,-0.367 h 1.35 c -0.051,0.134 -0.084,0.271 -0.099,0.41 -0.019,0.169 -0.027,0.393 -0.027,0.664 v 1.662 c 0,0.544 -0.074,0.985 -0.217,1.308 -0.141,0.315 -0.375,0.518 -0.717,0.621 L 0.363,-1.65 v 0.132 l 0.047,0.019 c 0.624,0.252 0.927,0.839 0.927,1.796 v 0.581 c 0,0.716 -0.17,1.251 -0.506,1.59 -0.335,0.34 -0.881,0.511 -1.622,0.511 H -2.92 v -9.311 h 1.337 v 4.055 h 0.589 c 0.364,0 0.627,-0.096 0.781,-0.285 0.152,-0.187 0.227,-0.499 0.227,-0.953 v -1.73 c 0,-0.349 0.008,-0.591 0.026,-0.72" />
    </g>
    <g
       transform="matrix(0.35277777,0,0,-0.35277777,145.69387,170.37026)"
       id="g122">
      <path
         id="path124"
         style="fill:#231f20;fill-opacity:1;fill-rule:nonzero;stroke:none"
         d="m 0,0 h -1.337 v -7.184 c 0,-0.325 -0.08,-0.572 -0.237,-0.734 -0.158,-0.163 -0.4,-0.246 -0.716,-0.246 -0.148,0 -0.287,0.012 -0.412,0.036 v -1.196 c 0.171,-0.028 0.377,-0.041 0.614,-0.041 0.706,0 1.235,0.182 1.574,0.544 C -0.173,-8.459 0,-7.895 0,-7.143 Z" />
    </g>
    <g
       transform="matrix(0.35277777,0,0,-0.35277777,148.09234,170.37026)"
       id="g126">
      <path
         id="path128"
         style="fill:#231f20;fill-opacity:1;fill-rule:nonzero;stroke:none"
         d="m 0,0 h -1.282 v -7.251 c 0,-0.342 -0.073,-0.596 -0.216,-0.754 -0.145,-0.159 -0.352,-0.24 -0.616,-0.24 -0.265,0 -0.473,0.081 -0.617,0.24 -0.143,0.159 -0.215,0.412 -0.215,0.754 V 0 h -1.337 v -7.143 c 0,-0.743 0.183,-1.319 0.547,-1.713 0.362,-0.392 0.898,-0.59 1.594,-0.59 0.697,0 1.233,0.198 1.595,0.59 C -0.184,-8.462 0,-7.886 0,-7.143 Z" />
    </g>
    <g
       transform="matrix(0.35277777,0,0,-0.35277777,150.09463,173.65518)"
       id="g130">
      <path
         id="path132"
         style="fill:#231f20;fill-opacity:1;fill-rule:nonzero;stroke:none"
         d="M 0,0 H 1.395 V 9.312 H 0.22 V 3.647 H 0.06 L 0.046,3.704 -1.387,9.312 H -3.119 V 0 h 1.175 v 6.907 h 0.16 z" />
    </g>
    <g
       transform="matrix(0.35277777,0,0,-0.35277777,152.93717,170.37026)"
       id="g134">
      <path
         id="path136"
         style="fill:#231f20;fill-opacity:1;fill-rule:nonzero;stroke:none"
         d="m 0,0 h -4.445 v -1.201 h 1.554 v -8.111 h 1.336 v 8.111 H 0 Z" />
    </g>
    <g
       transform="matrix(0.35277777,0,0,-0.35277777,154.7307,172.92342)"
       id="g138">
      <path
         id="path140"
         style="fill:#231f20;fill-opacity:1;fill-rule:nonzero;stroke:none"
         d="m 0,0 c 0,-0.833 -0.46,-1.008 -0.846,-1.008 -0.385,0 -0.845,0.175 -0.845,1.008 v 5.163 c 0,0.833 0.46,1.008 0.845,1.008 C -0.46,6.171 0,5.996 0,5.163 Z m 1.337,5.068 c 0,0.734 -0.189,1.308 -0.561,1.707 -0.371,0.396 -0.917,0.597 -1.622,0.597 -0.704,0 -1.25,-0.201 -1.621,-0.597 -0.372,-0.398 -0.56,-0.972 -0.56,-1.707 V 0.095 c 0,-0.735 0.188,-1.309 0.56,-1.707 0.371,-0.396 0.917,-0.597 1.621,-0.597 0.705,0 1.251,0.201 1.622,0.597 0.372,0.399 0.561,0.973 0.561,1.707 z" />
    </g>
    <g
       transform="matrix(0.35277777,0,0,-0.35277777,157.38447,172.34465)"
       id="g142">
      <path
         id="path144"
         style="fill:#231f20;fill-opacity:1;fill-rule:nonzero;stroke:none"
         d="m 0,0 c -0.229,0.43 -0.654,0.919 -1.267,1.452 -0.487,0.423 -0.831,0.792 -1.022,1.098 -0.191,0.308 -0.288,0.644 -0.288,1 0,0.81 0.445,0.98 0.818,0.98 0.265,0 0.471,-0.084 0.612,-0.249 C -1.01,4.12 -0.94,3.864 -0.94,3.522 V 3.111 h 1.255 v 0.317 c 0,0.744 -0.177,1.32 -0.528,1.715 -0.349,0.39 -0.874,0.588 -1.559,0.588 -0.696,0 -1.232,-0.198 -1.594,-0.589 -0.363,-0.395 -0.548,-0.962 -0.548,-1.687 0,-0.533 0.119,-1.019 0.355,-1.444 0.24,-0.429 0.666,-0.915 1.269,-1.446 0.488,-0.425 0.83,-0.798 1.015,-1.107 0.186,-0.312 0.281,-0.677 0.281,-1.085 0,-0.352 -0.072,-0.611 -0.215,-0.773 -0.145,-0.164 -0.357,-0.248 -0.631,-0.248 -0.386,0 -0.846,0.172 -0.846,0.994 v 0.573 H -3.94 v -0.465 c 0,-0.743 0.179,-1.32 0.534,-1.715 0.352,-0.39 0.884,-0.589 1.58,-0.589 0.705,0 1.248,0.201 1.614,0.597 0.367,0.399 0.554,0.982 0.554,1.733 C 0.342,-0.94 0.227,-0.429 0,0" />
    </g>
    <path
       id="path146"
       style="fill:#050606;fill-opacity:1;fill-rule:nonzero;stroke:none;stroke-width:0.35277775"
       d="m 110.35506,168.38454 h -1.48942 v -8.5471 h 1.48942 z" />
    <g
       transform="matrix(0.35277777,0,0,-0.35277777,113.99365,162.5115)"
       id="g148">
      <path
         id="path150"
         style="fill:#050606;fill-opacity:1;fill-rule:nonzero;stroke:none"
         d="m 0,0 c 0.162,-0.346 0.457,-0.669 0.885,-0.969 0.427,-0.301 1.018,-0.577 1.77,-0.831 0.751,-0.254 1.706,-0.519 2.862,-0.796 1.273,-0.323 2.401,-0.68 3.384,-1.072 0.983,-0.394 1.798,-0.872 2.446,-1.437 0.648,-0.565 1.139,-1.223 1.475,-1.973 0.335,-0.75 0.503,-1.632 0.503,-2.648 0,-1.154 -0.212,-2.18 -0.635,-3.08 -0.424,-0.9 -1.013,-1.662 -1.768,-2.284 -0.755,-0.623 -1.663,-1.097 -2.722,-1.42 -1.06,-0.323 -2.224,-0.485 -3.493,-0.485 -1.869,0 -3.658,0.318 -5.365,0.953 -1.708,0.634 -3.288,1.608 -4.741,2.924 l 2.561,3.046 c 1.176,-1.016 2.364,-1.795 3.565,-2.336 1.199,-0.542 2.561,-0.814 4.084,-0.814 1.314,0 2.359,0.277 3.132,0.831 0.773,0.554 1.159,1.303 1.159,2.249 0,0.438 -0.075,0.831 -0.225,1.177 -0.15,0.347 -0.428,0.664 -0.833,0.952 -0.405,0.289 -0.961,0.559 -1.666,0.814 -0.705,0.253 -1.625,0.519 -2.758,0.796 -1.296,0.299 -2.447,0.634 -3.453,1.004 -1.006,0.369 -1.851,0.831 -2.533,1.384 -0.682,0.554 -1.203,1.223 -1.562,2.008 -0.358,0.784 -0.537,1.742 -0.537,2.873 0,1.06 0.205,2.024 0.617,2.889 0.412,0.866 0.978,1.61 1.7,2.233 0.721,0.623 1.587,1.102 2.601,1.436 1.012,0.335 2.119,0.502 3.319,0.502 1.777,0 3.374,-0.259 4.794,-0.779 C 9.985,6.628 11.317,5.872 12.564,4.88 L 10.28,1.661 C 9.172,2.469 8.076,3.086 6.991,3.513 5.906,3.94 4.811,4.153 3.703,4.153 2.457,4.153 1.488,3.87 0.796,3.306 0.104,2.74 -0.243,2.054 -0.243,1.246 -0.243,0.761 -0.162,0.346 0,0" />
    </g>
    <g
       transform="matrix(0.35277777,0,0,-0.35277777,123.98149,161.57117)"
       id="g152">
      <path
         id="path154"
         style="fill:#050606;fill-opacity:1;fill-rule:nonzero;stroke:none"
         d="m 0,0 -4.154,-9.691 h 8.342 z m 12.703,-19.313 h -4.5 l -2.457,5.848 H -5.711 l -2.492,-5.848 h -4.361 l 10.66,24.4 h 3.946 z" />
    </g>
    <g
       transform="matrix(0.35277777,0,0,-0.35277777,137.48611,168.38451)"
       id="g156">
      <path
         id="path158"
         style="fill:#050606;fill-opacity:1;fill-rule:nonzero;stroke:none"
         d="M 0,0 H -5.158 L -13.43,10.903 -17.203,7.026 V 0 h -4.222 v 24.228 h 4.222 V 12.045 L -5.677,24.228 H -0.45 L -10.522,13.81 Z" />
    </g>
    <path
       id="path160"
       style="fill:#050606;fill-opacity:1;fill-rule:nonzero;stroke:none;stroke-width:0.35277775"
       d="m 139.0366,159.83744 h 0.635 v 8.5471 h -0.635 z" />
    <g
       transform="matrix(0.35277777,0,0,-0.35277777,145.30028,160.41138)"
       id="g162">
      <path
         id="path164"
         style="fill:#050606;fill-opacity:1;fill-rule:nonzero;stroke:none"
         d="M 0,0 V -22.601 H -1.8 V 0 h -8.445 V 1.627 H 8.445 V 0 Z" />
    </g>
    <g
       transform="matrix(0.35277777,0,0,-0.35277777,157.09544,164.11106)"
       id="g166">
      <path
         id="path168"
         style="fill:#050606;fill-opacity:1;fill-rule:nonzero;stroke:none"
         d="m 0,0 c 0,1.5 -0.26,2.913 -0.779,4.24 -0.519,1.327 -1.234,2.48 -2.145,3.461 -0.912,0.981 -2.003,1.76 -3.271,2.337 -1.27,0.576 -2.655,0.865 -4.154,0.865 -1.5,0 -2.879,-0.283 -4.136,-0.848 -1.258,-0.566 -2.342,-1.339 -3.254,-2.32 C -18.65,6.754 -19.36,5.607 -19.867,4.292 -20.375,2.977 -20.629,1.569 -20.629,0.069 V 0 c 0,-1.5 0.26,-2.913 0.779,-4.24 0.519,-1.327 1.234,-2.481 2.146,-3.461 0.912,-0.981 2.001,-1.759 3.271,-2.336 1.268,-0.578 2.653,-0.866 4.153,-0.866 1.5,0 2.878,0.283 4.136,0.848 1.258,0.566 2.342,1.338 3.254,2.319 0.911,0.981 1.62,2.129 2.129,3.444 C -0.254,-2.977 0,-1.569 0,-0.069 Z m 0.986,-4.759 c -0.588,-1.512 -1.413,-2.844 -2.475,-3.998 -1.061,-1.154 -2.347,-2.071 -3.859,-2.751 -1.511,-0.68 -3.178,-1.021 -5.001,-1.021 -1.847,0 -3.513,0.341 -5.002,1.021 -1.488,0.68 -2.763,1.592 -3.824,2.734 -1.062,1.142 -1.881,2.462 -2.457,3.963 -0.578,1.499 -0.866,3.08 -0.866,4.742 V 0 c 0,1.661 0.294,3.248 0.883,4.759 0.588,1.511 1.413,2.844 2.475,3.997 1.061,1.155 2.341,2.072 3.842,2.752 1.499,0.681 3.172,1.022 5.018,1.022 1.823,0 3.484,-0.341 4.985,-1.022 1.499,-0.68 2.78,-1.591 3.841,-2.734 C -0.393,7.632 0.427,6.311 1.003,4.811 1.58,3.311 1.869,1.731 1.869,0.069 1.892,0.046 1.892,0.022 1.869,0 c 0,-1.661 -0.294,-3.248 -0.883,-4.759" />
    </g>
    <g
       transform="matrix(0.35277777,0,0,-0.35277777,138.20941,147.80387)"
       id="g170">
      <path
         id="path172"
         style="fill:#c11441;fill-opacity:1;fill-rule:nonzero;stroke:none"
         d="m 0,0 c 0,-7.663 -6.208,-13.875 -13.877,-13.875 -7.664,0 -13.881,6.212 -13.881,13.875 0,7.661 6.217,13.869 13.881,13.869 C -6.208,13.869 0,7.661 0,0" />
    </g>
    <g
       transform="matrix(0.35277777,0,0,-0.35277777,138.13275,147.83178)"
       id="g174">
      <path
         id="path176"
         style="fill:#c11441;fill-opacity:1;fill-rule:nonzero;stroke:none"
         d="m 0,0 c 0,-7.667 -6.211,-13.874 -13.874,-13.874 -7.661,0 -13.876,6.207 -13.876,13.874 0,7.672 6.215,13.874 13.876,13.874 C -6.211,13.874 0,7.672 0,0" />
    </g>
    <g
       transform="matrix(0.35277777,0,0,-0.35277777,129.53069,141.46128)"
       id="g178">
      <path
         id="path180"
         style="fill:#db2c3d;fill-opacity:1;fill-rule:nonzero;stroke:none"
         d="m 0,0 c 0,-6.669 -5.404,-12.077 -12.079,-12.077 -6.671,0 -12.083,5.408 -12.083,12.077 0,6.669 5.412,12.072 12.083,12.072 C -5.404,12.072 0,6.669 0,0" />
    </g>
    <g
       transform="matrix(0.35277777,0,0,-0.35277777,129.46405,141.48556)"
       id="g182">
      <path
         id="path184"
         style="fill:#db2c3d;fill-opacity:1;fill-rule:nonzero;stroke:none"
         d="m 0,0 c 0,-6.673 -5.407,-12.076 -12.077,-12.076 -6.668,0 -12.078,5.403 -12.078,12.076 0,6.678 5.41,12.077 12.078,12.077 C -5.407,12.077 0,6.678 0,0" />
    </g>
    <g
       transform="matrix(0.35277777,0,0,-0.35277777,120.16744,139.13291)"
       id="g186">
      <path
         id="path188"
         style="fill:#df393d;fill-opacity:1;fill-rule:nonzero;stroke:none"
         d="m 0,0 c 0,-6.063 -4.912,-10.978 -10.98,-10.978 -6.064,0 -10.984,4.915 -10.984,10.978 0,6.062 4.92,10.974 10.984,10.974 C -4.912,10.974 0,6.062 0,0" />
    </g>
    <g
       transform="matrix(0.35277777,0,0,-0.35277777,120.10697,139.15496)"
       id="g190">
      <path
         id="path192"
         style="fill:#df393d;fill-opacity:1;fill-rule:nonzero;stroke:none"
         d="m 0,0 c 0,-6.066 -4.915,-10.978 -10.978,-10.978 -6.063,0 -10.98,4.912 -10.98,10.978 0,6.07 4.917,10.978 10.98,10.978 C -4.915,10.978 0,6.07 0,0" />
    </g>
    <g
       transform="matrix(0.35277777,0,0,-0.35277777,110.91944,140.83528)"
       id="g194">
      <path
         id="path196"
         style="fill:#dd5938;fill-opacity:1;fill-rule:nonzero;stroke:none"
         d="m 0,0 c 0,-5.512 -4.466,-9.98 -9.982,-9.98 -5.514,0 -9.986,4.468 -9.986,9.98 0,5.511 4.472,9.976 9.986,9.976 C -4.466,9.976 0,5.511 0,0" />
    </g>
    <g
       transform="matrix(0.35277777,0,0,-0.35277777,110.8643,140.85528)"
       id="g198">
      <path
         id="path200"
         style="fill:#dd5938;fill-opacity:1;fill-rule:nonzero;stroke:none"
         d="m 0,0 c 0,-5.515 -4.468,-9.98 -9.98,-9.98 -5.511,0 -9.981,4.465 -9.981,9.98 0,5.519 4.47,9.98 9.981,9.98 C -4.468,9.98 0,5.519 0,0" />
    </g>
    <g
       transform="matrix(0.35277777,0,0,-0.35277777,103.60396,145.21315)"
       id="g202">
      <path
         id="path204"
         style="fill:#d68d32;fill-opacity:1;fill-rule:nonzero;stroke:none"
         d="m 0,0 c 0,-4.847 -3.927,-8.775 -8.777,-8.775 -4.848,0 -8.78,3.928 -8.78,8.775 0,4.846 3.932,8.772 8.78,8.772 C -3.927,8.772 0,4.846 0,0" />
    </g>
    <g
       transform="matrix(0.35277777,0,0,-0.35277777,103.55556,145.23071)"
       id="g206">
      <path
         id="path208"
         style="fill:#d68d32;fill-opacity:1;fill-rule:nonzero;stroke:none"
         d="m 0,0 c 0,-4.849 -3.929,-8.775 -8.775,-8.775 -4.846,0 -8.777,3.926 -8.777,8.775 0,4.852 3.931,8.775 8.777,8.775 C -3.929,8.775 0,4.852 0,0" />
    </g>
    <g
       transform="matrix(0.35277777,0,0,-0.35277777,99.264331,151.44793)"
       id="g210">
      <path
         id="path212"
         style="fill:#c5a330;fill-opacity:1;fill-rule:nonzero;stroke:none"
         d="m 0,0 c 0,-4.24 -3.435,-7.677 -7.678,-7.677 -4.241,0 -7.681,3.437 -7.681,7.677 0,4.239 3.44,7.674 7.681,7.674 C -3.435,7.674 0,4.239 0,0" />
    </g>
    <g
       transform="matrix(0.35277777,0,0,-0.35277777,99.221964,151.46341)"
       id="g214">
      <path
         id="path216"
         style="fill:#c5a330;fill-opacity:1;fill-rule:nonzero;stroke:none"
         d="m 0,0 c 0,-4.242 -3.437,-7.677 -7.676,-7.677 -4.239,0 -7.678,3.435 -7.678,7.677 0,4.245 3.439,7.677 7.678,7.677 C -3.437,7.677 0,4.245 0,0" />
    </g>
    <g
       transform="matrix(0.35277777,0,0,-0.35277777,96.523425,157.75313)"
       id="g218">
      <path
         id="path220"
         style="fill:#a5a933;fill-opacity:1;fill-rule:nonzero;stroke:none"
         d="m 0,0 c 0,-3.744 -3.033,-6.778 -6.779,-6.778 -3.744,0 -6.782,3.034 -6.782,6.778 0,3.743 3.038,6.775 6.782,6.775 C -3.033,6.775 0,3.743 0,0" />
    </g>
    <g
       transform="matrix(0.35277777,0,0,-0.35277777,96.486029,157.76674)"
       id="g222">
      <path
         id="path224"
         style="fill:#a5a933;fill-opacity:1;fill-rule:nonzero;stroke:none"
         d="m 0,0 c 0,-3.746 -3.035,-6.778 -6.778,-6.778 -3.742,0 -6.779,3.032 -6.779,6.778 0,3.748 3.037,6.778 6.779,6.778 C -3.035,6.778 0,3.748 0,0" />
    </g>
    <g
       transform="matrix(0.35277777,0,0,-0.35277777,96.751142,163.90056)"
       id="g226">
      <path
         id="path228"
         style="fill:#789d36;fill-opacity:1;fill-rule:nonzero;stroke:none"
         d="m 0,0 c 0,-3.357 -2.72,-6.079 -6.08,-6.079 -3.358,0 -6.082,2.722 -6.082,6.079 0,3.357 2.724,6.077 6.082,6.077 C -2.72,6.077 0,3.357 0,0" />
    </g>
    <g
       transform="matrix(0.35277777,0,0,-0.35277777,96.717698,163.91277)"
       id="g230">
      <path
         id="path232"
         style="fill:#789d36;fill-opacity:1;fill-rule:nonzero;stroke:none"
         d="m 0,0 c 0,-3.359 -2.722,-6.079 -6.079,-6.079 -3.357,0 -6.08,2.72 -6.08,6.079 0,3.362 2.723,6.079 6.08,6.079 C -2.722,6.079 0,3.362 0,0" />
    </g>
    <g
       transform="matrix(0.35277777,0,0,-0.35277777,97.892131,168.68613)"
       id="g234">
      <path
         id="path236"
         style="fill:#7aa975;fill-opacity:1;fill-rule:nonzero;stroke:none"
         d="m 0,0 c 0,-2.806 -2.273,-5.081 -5.081,-5.081 -2.807,0 -5.083,2.275 -5.083,5.081 0,2.805 2.276,5.079 5.083,5.079 C -2.273,5.079 0,2.805 0,0" />
    </g>
    <g
       transform="matrix(0.35277777,0,0,-0.35277777,97.864228,168.69629)"
       id="g238">
      <path
         id="path240"
         style="fill:#7aa975;fill-opacity:1;fill-rule:nonzero;stroke:none"
         d="m 0,0 c 0,-2.807 -2.275,-5.081 -5.081,-5.081 -2.805,0 -5.081,2.274 -5.081,5.081 0,2.809 2.276,5.08 5.081,5.08 C -2.275,5.08 0,2.809 0,0" />
    </g>
    <g
       transform="matrix(0.35277777,0,0,-0.35277777,99.604869,173.20765)"
       id="g242">
      <path
         id="path244"
         style="fill:#66abaf;fill-opacity:1;fill-rule:nonzero;stroke:none"
         d="m 0,0 c 0,-2.199 -1.782,-3.983 -3.983,-3.983 -2.2,0 -3.985,1.784 -3.985,3.983 0,2.199 1.785,3.981 3.985,3.981 C -1.782,3.981 0,2.199 0,0" />
    </g>
    <g
       transform="matrix(0.35277777,0,0,-0.35277777,99.582996,173.21559)"
       id="g246">
      <path
         id="path248"
         style="fill:#66abaf;fill-opacity:1;fill-rule:nonzero;stroke:none"
         d="m 0,0 c 0,-2.201 -1.783,-3.982 -3.982,-3.982 -2.2,0 -3.984,1.781 -3.984,3.982 0,2.202 1.784,3.982 3.984,3.982 C -1.783,3.982 0,2.202 0,0" />
    </g>
    <g
       transform="matrix(0.35277777,0,0,-0.35277777,102.24227,176.69803)"
       id="g250">
      <path
         id="path252"
         style="fill:#5492b4;fill-opacity:1;fill-rule:nonzero;stroke:none"
         d="m 0,0 c 0,-1.814 -1.47,-3.284 -3.285,-3.284 -1.814,0 -3.286,1.47 -3.286,3.284 0,1.813 1.472,3.283 3.286,3.283 C -1.47,3.283 0,1.813 0,0" />
    </g>
    <g
       transform="matrix(0.35277777,0,0,-0.35277777,102.22399,176.70459)"
       id="g254">
      <path
         id="path256"
         style="fill:#5492b4;fill-opacity:1;fill-rule:nonzero;stroke:none"
         d="m 0,0 c 0,-1.815 -1.47,-3.284 -3.284,-3.284 -1.813,0 -3.284,1.469 -3.284,3.284 0,1.816 1.471,3.284 3.284,3.284 C -1.47,3.284 0,1.816 0,0" />
    </g>
    <g
       transform="matrix(0.35277777,0,0,-0.35277777,105.66739,179.09583)"
       id="g258">
      <path
         id="path260"
         style="fill:#5170b7;fill-opacity:1;fill-rule:nonzero;stroke:none"
         d="m 0,0 c 0,-1.813 -1.469,-3.284 -3.284,-3.284 -1.815,0 -3.286,1.471 -3.286,3.284 0,1.813 1.471,3.283 3.286,3.283 C -1.469,3.283 0,1.813 0,0" />
    </g>
    <g
       transform="matrix(0.35277777,0,0,-0.35277777,105.64929,179.10239)"
       id="g262">
      <path
         id="path264"
         style="fill:#5170b7;fill-opacity:1;fill-rule:nonzero;stroke:none"
         d="m 0,0 c 0,-1.814 -1.47,-3.284 -3.284,-3.284 -1.813,0 -3.284,1.47 -3.284,3.284 0,1.816 1.471,3.284 3.284,3.284 C -1.47,3.284 0,1.816 0,0" />
    </g>
    <g
       transform="matrix(0.35277777,0,0,-0.35277777,109.64164,181.39922)"
       id="g266">
      <path
         id="path268"
         style="fill:#6b5fb5;fill-opacity:1;fill-rule:nonzero;stroke:none"
         d="m 0,0 c 0,-1.813 -1.47,-3.284 -3.285,-3.284 -1.814,0 -3.286,1.471 -3.286,3.284 0,1.813 1.472,3.283 3.286,3.283 C -1.47,3.283 0,1.813 0,0" />
    </g>
    <g
       transform="matrix(0.35277777,0,0,-0.35277777,109.62337,181.40578)"
       id="g270">
      <path
         id="path272"
         style="fill:#6b5fb5;fill-opacity:1;fill-rule:nonzero;stroke:none"
         d="m 0,0 c 0,-1.814 -1.47,-3.284 -3.284,-3.284 -1.813,0 -3.284,1.47 -3.284,3.284 0,1.816 1.471,3.284 3.284,3.284 C -1.47,3.284 0,1.816 0,0" />
    </g>
    <g
       transform="matrix(0.35277777,0,0,-0.35277777,113.88806,182.17851)"
       id="g274">
      <path
         id="path276"
         style="fill:#6955b0;fill-opacity:1;fill-rule:nonzero;stroke:none"
         d="m 0,0 c 0,-1.813 -1.47,-3.284 -3.285,-3.284 -1.814,0 -3.285,1.471 -3.285,3.284 0,1.814 1.471,3.283 3.285,3.283 C -1.47,3.283 0,1.814 0,0" />
    </g>
    <g
       transform="matrix(0.35277777,0,0,-0.35277777,113.86997,182.18507)"
       id="g278">
      <path
         id="path280"
         style="fill:#6955b0;fill-opacity:1;fill-rule:nonzero;stroke:none"
         d="m 0,0 c 0,-1.814 -1.47,-3.284 -3.284,-3.284 -1.814,0 -3.284,1.47 -3.284,3.284 0,1.816 1.47,3.284 3.284,3.284 C -1.47,3.284 0,1.816 0,0" />
    </g>
    <g
       transform="matrix(0.35277777,0,0,-0.35277777,118.68348,182.40693)"
       id="g282">
      <path
         id="path284"
         style="fill:#5d43a4;fill-opacity:1;fill-rule:nonzero;stroke:none"
         d="m 0,0 c 0,-1.813 -1.47,-3.284 -3.285,-3.284 -1.814,0 -3.286,1.471 -3.286,3.284 0,1.814 1.472,3.283 3.286,3.283 C -1.47,3.283 0,1.814 0,0" />
    </g>
    <g
       transform="matrix(0.35277777,0,0,-0.35277777,118.66538,182.41328)"
       id="g286">
      <path
         id="path288"
         style="fill:#5d43a4;fill-opacity:1;fill-rule:nonzero;stroke:none"
         d="m 0,0 c 0,-1.815 -1.471,-3.284 -3.284,-3.284 -1.814,0 -3.285,1.469 -3.285,3.284 0,1.816 1.471,3.284 3.285,3.284 C -1.471,3.284 0,1.816 0,0" />
    </g>
    <g
       transform="matrix(0.35277777,0,0,-0.35277777,123.80927,181.75235)"
       id="g290">
      <path
         id="path292"
         style="fill:#5844a4;fill-opacity:1;fill-rule:nonzero;stroke:none"
         d="m 0,0 c 0,-1.632 -1.323,-2.956 -2.957,-2.956 -1.632,0 -2.957,1.324 -2.957,2.956 0,1.632 1.325,2.955 2.957,2.955 C -1.323,2.955 0,1.632 0,0" />
    </g>
    <g
       transform="matrix(0.35277777,0,0,-0.35277777,123.7929,181.75821)"
       id="g294">
      <path
         id="path296"
         style="fill:#5844a4;fill-opacity:1;fill-rule:nonzero;stroke:none"
         d="m 0,0 c 0,-1.633 -1.323,-2.956 -2.956,-2.956 -1.632,0 -2.956,1.323 -2.956,2.956 0,1.634 1.324,2.956 2.956,2.956 C -1.323,2.956 0,1.634 0,0" />
    </g>
  </g>
</svg>
