<?xml version="1.0" standalone="no"?>
<!DOCTYPE svg PUBLIC "-//W3C//DTD SVG 20010904//EN"
 "http://www.w3.org/TR/2001/REC-SVG-20010904/DTD/svg10.dtd">
<svg version="1.0" xmlns="http://www.w3.org/2000/svg"
 width="572.000000pt" height="572.000000pt" viewBox="0 0 572.000000 572.000000"
 preserveAspectRatio="xMidYMid meet">
<metadata>
Created by potrace 1.14, written by Peter Selinger 2001-2017
</metadata>
<g transform="translate(0.000000,572.000000) scale(0.100000,-0.100000)"
fill="#000000" stroke="none">
<path d="M2950 5713 c-41 -6 -142 -44 -182 -69 -88 -56 -170 -168 -198 -274
-50 -184 28 -387 189 -494 300 -200 701 1 717 358 2 43 -1 99 -7 125 -34 154
-154 282 -313 336 -44 15 -154 24 -206 18z"/>
<path d="M4000 5483 c-192 -32 -357 -179 -413 -369 -8 -28 -15 -88 -15 -134 0
-141 50 -260 150 -359 284 -282 770 -133 852 262 54 259 -106 517 -365 587
-46 13 -166 20 -209 13z"/>
<path d="M1905 5468 c-113 -15 -222 -85 -289 -187 -152 -228 -35 -550 228
-626 265 -77 529 109 541 383 6 125 -40 238 -132 322 -97 89 -214 125 -348
108z"/>
<path d="M1062 4894 c-316 -84 -377 -504 -97 -672 139 -83 318 -63 439 48 174
160 154 437 -40 570 -87 60 -202 81 -302 54z"/>
<path d="M4933 4804 c-172 -30 -298 -113 -394 -258 -64 -97 -88 -173 -93 -296
-15 -325 249 -599 577 -600 137 0 273 50 380 140 136 114 212 285 206 465 -6
207 -123 392 -309 489 -114 60 -245 81 -367 60z"/>
<path d="M615 4115 c-102 -23 -179 -87 -223 -184 -21 -45 -26 -71 -25 -131 1
-131 67 -235 181 -288 48 -23 71 -27 142 -27 74 0 92 4 140 29 108 56 170 150
177 271 7 100 -21 172 -96 245 -83 81 -186 111 -296 85z"/>
<path d="M285 3317 c-67 -33 -112 -78 -142 -144 -64 -139 -7 -298 131 -371 43
-22 63 -27 126 -26 85 1 129 16 184 65 147 129 133 348 -29 455 -51 34 -63 38
-138 41 -71 4 -89 1 -132 -20z"/>
<path d="M380 2575 c-132 -42 -206 -182 -167 -316 67 -226 384 -247 479 -31
57 128 -11 293 -141 343 -43 17 -125 19 -171 4z"/>
<path d="M555 1966 c-219 -96 -152 -416 87 -416 19 0 57 11 85 25 128 64 162
219 72 329 -56 67 -167 96 -244 62z"/>
<path d="M815 1386 c-84 -38 -123 -138 -87 -219 33 -72 94 -108 172 -101 149
14 205 208 85 299 -43 34 -122 44 -170 21z"/>
<path d="M1161 942 c-53 -26 -75 -64 -75 -122 2 -78 45 -127 122 -137 81 -11
155 56 154 138 -2 104 -109 169 -201 121z"/>
<path d="M1586 670 c-83 -26 -122 -132 -76 -207 56 -93 204 -81 245 20 19 46
19 68 1 111 -25 60 -105 96 -170 76z"/>
<path d="M2041 390 c-58 -27 -83 -71 -78 -139 3 -47 9 -59 40 -88 36 -32 52
-37 111 -34 83 4 143 95 116 176 -28 84 -109 120 -189 85z"/>
<path d="M3724 331 c-45 -27 -64 -59 -64 -106 0 -72 51 -124 122 -125 50 0 79
15 106 54 40 59 25 131 -37 173 -41 28 -86 29 -127 4z"/>
<path d="M2525 290 c-91 -60 -83 -193 15 -243 99 -50 218 44 196 155 -18 91
-133 139 -211 88z"/>
<path d="M3115 275 c-94 -40 -118 -160 -46 -229 118 -113 297 34 214 175 -31
52 -112 78 -168 54z"/>
</g>
</svg>
